<svg xmlns="http://www.w3.org/2000/svg" viewBox="0 0 165.3438 56.6309"><defs><style>.a{fill:#424143;}</style></defs><title>Asset 1</title><path class="a" d="M24.88,14.4556h0a16.6648,16.6648,0,0,0-8.2275-2.0611A15.3536,15.3536,0,0,0,9.3433,14.127a13.5,13.5,0,0,0-3.752,2.9487v-3.64a.8081.8081,0,0,0-.8081-.8081H.8076A.8077.8077,0,0,0,0,13.436V55.53a.8072.8072,0,0,0,.8076.8076H4.959a.8072.8072,0,0,0,.8076-.8076v-14.76a13.3487,13.3487,0,0,0,3.7627,2.88,15.41,15.41,0,0,0,7.1226,1.6382,16.6088,16.6088,0,0,0,8.2592-2.0625,14.9164,14.9164,0,0,0,5.7759-5.8355,17.4019,17.4019,0,0,0,2.09-8.5786,17.2843,17.2843,0,0,0-2.09-8.5195A14.8777,14.8777,0,0,0,24.88,14.4556ZM27.0107,28.812a12.1676,12.1676,0,0,1-1.393,5.8706,9.78,9.78,0,0,1-3.81,3.9209,10.9,10.9,0,0,1-5.4482,1.3858,10.8538,10.8538,0,0,1-5.4741-1.3838,9.8351,9.8351,0,0,1-3.7842-3.9229A12.1677,12.1677,0,0,1,5.708,28.812,11.9954,11.9954,0,0,1,7.1,22.9746a10.0964,10.0964,0,0,1,3.7915-3.93,10.6837,10.6837,0,0,1,5.4683-1.41,10.73,10.73,0,0,1,5.4424,1.4121,10.0317,10.0317,0,0,1,3.8173,3.9277A11.9943,11.9943,0,0,1,27.0107,28.812Z"/><path class="a" d="M50.0605,39.6919a.8083.8083,0,0,0-.7412-.04,6.05,6.05,0,0,1-2.4746.455,4.1263,4.1263,0,0,1-3.2578-1.1645,5.3294,5.3294,0,0,1-1.08-3.64V.8081A.8077.8077,0,0,0,41.7,0H37.5488a.8081.8081,0,0,0-.8081.8081V35.6523a9.7809,9.7809,0,0,0,2.4771,7.05,9.2743,9.2743,0,0,0,6.9834,2.586,11.9651,11.9651,0,0,0,4.0122-.69.8078.8078,0,0,0,.5351-.83L50.4561,40.32A.8086.8086,0,0,0,50.0605,39.6919Z"/><path class="a" d="M82.5327,12.6279h-4.15a.8081.8081,0,0,0-.8081.8081v3.4776a13.3592,13.3592,0,0,0-3.7627-2.88,15.4172,15.4172,0,0,0-7.122-1.6387,16.6674,16.6674,0,0,0-8.2286,2.0611,14.8678,14.8678,0,0,0-5.8071,5.8369,17.2791,17.2791,0,0,0-2.09,8.52,17.2756,17.2756,0,0,0,2.09,8.52,15.0513,15.0513,0,0,0,5.8027,5.8638,16.477,16.477,0,0,0,8.233,2.0928,15.3446,15.3446,0,0,0,7.3076-1.732A13.2619,13.2619,0,0,0,77.75,40.582v3.6065a.8077.8077,0,0,0,.8081.8076h3.9751a.8077.8077,0,0,0,.8081-.8076V13.436A.8081.8081,0,0,0,82.5327,12.6279Zm-4.9,16.1841A12.1692,12.1692,0,0,1,76.24,34.6826a9.8386,9.8386,0,0,1-3.7841,3.9229A10.7441,10.7441,0,0,1,67.04,39.9893a10.8525,10.8525,0,0,1-5.4736-1.3838,9.8326,9.8326,0,0,1-3.7842-3.9229,12.1606,12.1606,0,0,1-1.393-5.8706,12.1627,12.1627,0,0,1,1.393-5.87,9.84,9.84,0,0,1,3.7842-3.9229A10.8554,10.8554,0,0,1,67.04,17.6348a10.7457,10.7457,0,0,1,5.4156,1.3842A9.8481,9.8481,0,0,1,76.24,22.9419,12.1714,12.1714,0,0,1,77.6323,28.812Z"/><path class="a" d="M113.5352,15.9878a13.3978,13.3978,0,0,0-9.7745-3.5933,15.9366,15.9366,0,0,0-7.3559,1.6387,12.6527,12.6527,0,0,0-3.5288,2.6592V13.436a.8081.8081,0,0,0-.8081-.8081H88.0928a.8081.8081,0,0,0-.8081.8081V44.1885a.8077.8077,0,0,0,.8081.8076h4.1509a.8073.8073,0,0,0,.8076-.8076V28.0522a10.4263,10.4263,0,0,1,2.6631-7.59,9.6544,9.6544,0,0,1,7.2866-2.71,8.2768,8.2768,0,0,1,6.2553,2.2636c1.4424,1.5132,2.1739,3.7842,2.1739,6.7505V44.1885a.8077.8077,0,0,0,.8081.8076h4.1509a.8077.8077,0,0,0,.8081-.8076V26.3569c0-4.4917-1.232-7.98-3.6617-10.3691Z"/><path class="a" d="M134.5586,39.6919a.81.81,0,0,0-.7412-.04,6.0512,6.0512,0,0,1-2.4751.455,4.1274,4.1274,0,0,1-3.2578-1.1645,5.3285,5.3285,0,0,1-1.0791-3.64V.8081A.8081.8081,0,0,0,126.1973,0h-4.1509a.8081.8081,0,0,0-.8081.8081V35.6523a9.7806,9.7806,0,0,0,2.4765,7.05,9.2766,9.2766,0,0,0,6.9844,2.5865,11.9643,11.9643,0,0,0,4.0117-.69.8071.8071,0,0,0,.5352-.8291l-.292-3.4492A.8086.8086,0,0,0,134.5586,39.6919Z"/><path class="a" d="M164.5361,12.6279h-4.1508a.8079.8079,0,0,0-.8082.8081V28.1108c0,3.2779-.87,5.8545-2.5844,7.6578A9.212,9.212,0,0,1,149.92,38.47c-2.7578,0-4.8037-.74-6.2553-2.2641-1.4429-1.5118-2.1739-3.8023-2.1739-6.8086V13.436a.8081.8081,0,0,0-.8081-.8081h-4.1514a.8077.8077,0,0,0-.8076.8081v16.37c0,4.5341,1.2535,8.0439,3.7251,10.4321,2.4624,2.3813,5.8477,3.5888,10.062,3.5888a14.6358,14.6358,0,0,0,6.772-1.5512,12.03,12.03,0,0,0,3.2944-2.4732v1.17c0,3.5913-.7739,6.2495-2.2993,7.9-1.5092,1.6318-3.9458,2.4589-7.2407,2.4589a16.7486,16.7486,0,0,1-5.9687-1.0581,13.0018,13.0018,0,0,1-4.627-2.9145.8077.8077,0,0,0-1.2436.123l-2.1045,3.1573a.8082.8082,0,0,0,.101,1.02,16.01,16.01,0,0,0,6.1221,3.67,23.8765,23.8765,0,0,0,7.896,1.3023c5.0024,0,8.8188-1.354,11.3442-4.024,2.5132-2.6577,3.7872-6.749,3.7872-12.16V13.436A.8078.8078,0,0,0,164.5361,12.6279Z"/><path class="a" d="M146.41,7.1251h8.1167a.91.91,0,0,0,1-.7752V3.4033a.91.91,0,0,0-1-.7751H146.41a.9094.9094,0,0,0-1,.7751V6.35A.9094.9094,0,0,0,146.41,7.1251Z"/><path class="a" d="M146.41,14.8766h8.1167a.91.91,0,0,0,1-.7751V11.1549a.91.91,0,0,0-1-.7752H146.41a.9094.9094,0,0,0-1,.7752v2.9466A.9094.9094,0,0,0,146.41,14.8766Z"/><path class="a" d="M146.41,22.6282h8.1167a.91.91,0,0,0,1-.7752V18.9064a.91.91,0,0,0-1-.7751H146.41a.9094.9094,0,0,0-1,.7751V21.853A.9094.9094,0,0,0,146.41,22.6282Z"/></svg>